# xmcd
#
# Track frame offsets: 
#        150
#        27665
#        60929
#        87164
#        116514
#        142191
#        170035
#        201240
#        225139
#        251064
#        277264
#
# Disc length: 4083 seconds
#
# Revision: 8
# Processed by: cddbd v1.5.2PL0 Copyright (c) Steve Scherf et al.
# Submitted via: ExactAudioCopy v1.1
#
DISCID=9e0ff10b
DTITLE=Barry White - Staying Power
DYEAR=1999
DGENRE=R&B
TTITLE0=Staying Power
TTITLE1=Don't Play Games
TTITLE2=Barry White and Chaka Khan - The Longer We Make Love
TTITLE3=I Get Off On You
TTITLE4=Which Way Is Up
TTITLE5=Get Up
TTITLE6=Sometimes
TTITLE7=Low Rider
TTITLE8=Thank You
TTITLE9=Slow Your Roll
TTITLE10=Barry White and Lisa Stansfield - The Longer We Make Love
EXTD=YEAR: 1999 ID3G: 14
EXTT0=
EXTT1=
EXTT2=
EXTT3=
EXTT4=
EXTT5=
EXTT6=
EXTT7=
EXTT8=
EXTT9=
EXTT10=
PLAYORDER=
